REM DIRINDEX 1\2,1\3,1\4,1\5\6,1\5\7,1\8
REM DIRNAME folder01,folder02,folder03,folder04,folder05,folder06,folder07,folder08
TITLE ""
FILE "034 Åy034ÅzUnit2 (0385 artificial_0396 harsh).mp3" MP3
  TRACK 01 AUDIO
    TITLE "0:"
    INDEX 01 00:00:00
  TRACK 02 AUDIO
    TITLE "2:cjc115_1270"
    INDEX 01 00:00:07
  TRACK 03 AUDIO
    TITLE "0:"
    INDEX 01 00:01:26
  TRACK 04 AUDIO
    TITLE "3:cjc115_1271"
    INDEX 01 00:01:40
  TRACK 05 AUDIO
    TITLE "0:"
    INDEX 01 00:03:49
  TRACK 06 AUDIO
    TITLE "4:cjc115_1272"
    INDEX 01 00:04:03
  TRACK 07 AUDIO
    TITLE "0:"
    INDEX 01 00:07:07
  TRACK 08 AUDIO
    TITLE "2:cjc115_1273"
    INDEX 01 00:08:21
  TRACK 09 AUDIO
    TITLE "0:"
    INDEX 01 00:09:38
  TRACK 10 AUDIO
    TITLE "3:cjc115_1274"
    INDEX 01 00:09:49
  TRACK 11 AUDIO
    TITLE "0:"
    INDEX 01 00:10:74
  TRACK 12 AUDIO
    TITLE "4:cjc115_1275"
    INDEX 01 00:11:19
  TRACK 13 AUDIO
    TITLE "0:"
    INDEX 01 00:14:53
  TRACK 14 AUDIO
    TITLE "2:cjc115_1276"
    INDEX 01 00:15:68
  TRACK 15 AUDIO
    TITLE "0:"
    INDEX 01 00:17:21
  TRACK 16 AUDIO
    TITLE "3:cjc115_1277"
    INDEX 01 00:17:39
  TRACK 17 AUDIO
    TITLE "0:"
    INDEX 01 00:20:28
  TRACK 18 AUDIO
    TITLE "4:cjc115_1278"
    INDEX 01 00:20:45
  TRACK 19 AUDIO
    TITLE "0:"
    INDEX 01 00:23:53
  TRACK 20 AUDIO
    TITLE "2:cjc115_1279"
    INDEX 01 00:24:69
  TRACK 21 AUDIO
    TITLE "0:"
    INDEX 01 00:26:01
  TRACK 22 AUDIO
    TITLE "3:cjc115_1280"
    INDEX 01 00:26:18
  TRACK 23 AUDIO
    TITLE "0:"
    INDEX 01 00:29:11
  TRACK 24 AUDIO
    TITLE "4:cjc115_1281"
    INDEX 01 00:29:23
  TRACK 25 AUDIO
    TITLE "0:"
    INDEX 01 00:33:46
  TRACK 26 AUDIO
    TITLE "2:cjc115_1282"
    INDEX 01 00:34:63
  TRACK 27 AUDIO
    TITLE "0:"
    INDEX 01 00:36:07
  TRACK 28 AUDIO
    TITLE "3:cjc115_1283"
    INDEX 01 00:36:23
  TRACK 29 AUDIO
    TITLE "0:"
    INDEX 01 00:37:40
  TRACK 30 AUDIO
    TITLE "4:cjc115_1284"
    INDEX 01 00:37:63
  TRACK 31 AUDIO
    TITLE "0:"
    INDEX 01 00:41:28
  TRACK 32 AUDIO
    TITLE "2:cjc115_1285"
    INDEX 01 00:42:43
  TRACK 33 AUDIO
    TITLE "0:"
    INDEX 01 00:43:62
  TRACK 34 AUDIO
    TITLE "3:cjc115_1286"
    INDEX 01 00:44:03
  TRACK 35 AUDIO
    TITLE "0:"
    INDEX 01 00:45:61
  TRACK 36 AUDIO
    TITLE "4:cjc115_1287"
    INDEX 01 00:45:73
  TRACK 37 AUDIO
    TITLE "0:"
    INDEX 01 00:50:44
  TRACK 38 AUDIO
    TITLE "2:cjc115_1288"
    INDEX 01 00:51:60
  TRACK 39 AUDIO
    TITLE "0:"
    INDEX 01 00:53:13
  TRACK 40 AUDIO
    TITLE "3:cjc115_1289"
    INDEX 01 00:53:29
  TRACK 41 AUDIO
    TITLE "0:"
    INDEX 01 00:54:58
  TRACK 42 AUDIO
    TITLE "4:cjc115_1290"
    INDEX 01 00:55:03
  TRACK 43 AUDIO
    TITLE "0:"
    INDEX 01 00:59:14
  TRACK 44 AUDIO
    TITLE "2:cjc115_1291"
    INDEX 01 01:00:27
  TRACK 45 AUDIO
    TITLE "0:"
    INDEX 01 01:01:52
  TRACK 46 AUDIO
    TITLE "3:cjc115_1292"
    INDEX 01 01:01:66
  TRACK 47 AUDIO
    TITLE "0:"
    INDEX 01 01:03:55
  TRACK 48 AUDIO
    TITLE "4:cjc115_1293"
    INDEX 01 01:03:69
  TRACK 49 AUDIO
    TITLE "0:"
    INDEX 01 01:07:37
  TRACK 50 AUDIO
    TITLE "2:cjc115_1294"
    INDEX 01 01:08:50
  TRACK 51 AUDIO
    TITLE "0:"
    INDEX 01 01:09:61
  TRACK 52 AUDIO
    TITLE "3:cjc115_1295"
    INDEX 01 01:10:04
  TRACK 53 AUDIO
    TITLE "0:"
    INDEX 01 01:12:19
  TRACK 54 AUDIO
    TITLE "4:cjc115_1296"
    INDEX 01 01:12:30
  TRACK 55 AUDIO
    TITLE "0:"
    INDEX 01 01:15:35
  TRACK 56 AUDIO
    TITLE "2:cjc115_1297"
    INDEX 01 01:16:48
  TRACK 57 AUDIO
    TITLE "0:"
    INDEX 01 01:17:67
  TRACK 58 AUDIO
    TITLE "3:cjc115_1298"
    INDEX 01 01:18:09
  TRACK 59 AUDIO
    TITLE "0:"
    INDEX 01 01:19:23
  TRACK 60 AUDIO
    TITLE "4:cjc115_1299"
    INDEX 01 01:19:36
  TRACK 61 AUDIO
    TITLE "0:"
    INDEX 01 01:23:34
  TRACK 62 AUDIO
    TITLE "2:cjc115_1300"
    INDEX 01 01:24:51
  TRACK 63 AUDIO
    TITLE "0:"
    INDEX 01 01:25:64
  TRACK 64 AUDIO
    TITLE "3:cjc115_1301"
    INDEX 01 01:26:03
  TRACK 65 AUDIO
    TITLE "0:"
    INDEX 01 01:29:13
  TRACK 66 AUDIO
    TITLE "4:cjc115_1302"
    INDEX 01 01:29:25
  TRACK 67 AUDIO
    TITLE "0:"
    INDEX 01 01:33:19
  TRACK 68 AUDIO
    TITLE "2:cjc115_1303"
    INDEX 01 01:34:34
  TRACK 69 AUDIO
    TITLE "0:"
    INDEX 01 01:35:35
  TRACK 70 AUDIO
    TITLE "3:cjc115_1304"
    INDEX 01 01:35:49
  TRACK 71 AUDIO
    TITLE "0:"
    INDEX 01 01:37:46
  TRACK 72 AUDIO
    TITLE "4:cjc115_1305"
    INDEX 01 01:37:60
  TRACK 73 AUDIO
    TITLE "0:"
    INDEX 01 01:42:04
